<svg xmlns="http://www.w3.org/2000/svg" xmlns:xlink="http://www.w3.org/1999/xlink" width="500" zoomAndPan="magnify" viewBox="0 0 375 374.999991" height="500" preserveAspectRatio="xMidYMid meet" version="1.0"><defs><g/><clipPath id="1dd372d416"><rect x="0" width="375" y="0" height="375"/></clipPath></defs><rect x="-37.5" width="450" fill="#ffffff" y="-37.499999" height="449.999989" fill-opacity="1"/><rect x="-37.5" width="450" fill="#1f3a8a" y="-37.499999" height="449.999989" fill-opacity="1"/><g transform="matrix(1, 0, 0, 1, 0, 0)"><g clip-path="url(#1dd372d416)"><g fill="#ffffff" fill-opacity="1"><g transform="translate(321.230429, 299.633975)"><g><path d="M 2.6875 -114.1875 C 2.6875 -96.5625 -0.441406 -80.785156 -6.703125 -66.859375 C -12.960938 -52.941406 -21.644531 -42.019531 -32.75 -34.09375 C -43.863281 -26.175781 -56.703125 -22.09375 -71.265625 -21.84375 L -71.265625 -59.015625 C -58.753906 -60.285156 -48.21875 -65.453125 -39.65625 -74.515625 C -31.101562 -83.585938 -26.828125 -96.8125 -26.828125 -114.1875 C -26.828125 -130.789062 -30.976562 -143.878906 -39.28125 -153.453125 C -47.582031 -163.035156 -58.242188 -167.828125 -71.265625 -167.828125 C -81.484375 -167.828125 -89.785156 -165.015625 -96.171875 -159.390625 C -102.554688 -153.773438 -107.410156 -146.753906 -110.734375 -138.328125 C -114.054688 -129.898438 -117.632812 -118.53125 -121.46875 -104.21875 C -126.0625 -86.59375 -130.65625 -72.476562 -135.25 -61.875 C -139.851562 -51.28125 -147.070312 -42.210938 -156.90625 -34.671875 C -166.738281 -27.140625 -179.957031 -23.375 -196.5625 -23.375 C -211.125 -23.375 -224.023438 -27.078125 -235.265625 -34.484375 C -246.503906 -41.890625 -255.1875 -52.296875 -261.3125 -65.703125 C -267.445312 -79.117188 -270.515625 -94.515625 -270.515625 -111.890625 C -270.515625 -136.921875 -264.253906 -157.414062 -251.734375 -173.375 C -239.222656 -189.34375 -222.625 -198.351562 -201.9375 -200.40625 L -201.9375 -162.078125 C -212.15625 -160.804688 -221.15625 -155.441406 -228.9375 -145.984375 C -236.726562 -136.535156 -240.625 -124.019531 -240.625 -108.4375 C -240.625 -93.875 -236.859375 -81.992188 -229.328125 -72.796875 C -221.796875 -63.609375 -211.257812 -59.015625 -197.71875 -59.015625 C -188.007812 -59.015625 -180.085938 -61.757812 -173.953125 -67.25 C -167.828125 -72.738281 -163.164062 -79.503906 -159.96875 -87.546875 C -156.78125 -95.597656 -153.140625 -106.90625 -149.046875 -121.46875 C -144.203125 -139.09375 -139.414062 -153.269531 -134.6875 -164 C -129.957031 -174.726562 -122.675781 -183.921875 -112.84375 -191.578125 C -103.007812 -199.242188 -89.660156 -203.078125 -72.796875 -203.078125 C -59.773438 -203.078125 -47.515625 -199.628906 -36.015625 -192.734375 C -24.523438 -185.835938 -15.203125 -175.617188 -8.046875 -162.078125 C -0.890625 -148.546875 2.6875 -132.582031 2.6875 -114.1875 Z M 2.6875 -114.1875 "/></g></g></g><g fill="#ffffff" fill-opacity="1"><g transform="translate(74.695442, 321.225605)"><g><path d="M 114.1875 2.6875 C 96.5625 2.6875 80.785156 -0.441406 66.859375 -6.703125 C 52.941406 -12.960938 42.019531 -21.644531 34.09375 -32.75 C 26.175781 -43.863281 22.09375 -56.703125 21.84375 -71.265625 L 59.015625 -71.265625 C 60.285156 -58.753906 65.453125 -48.21875 74.515625 -39.65625 C 83.585938 -31.101562 96.8125 -26.828125 114.1875 -26.828125 C 130.789062 -26.828125 143.878906 -30.976562 153.453125 -39.28125 C 163.035156 -47.582031 167.828125 -58.242188 167.828125 -71.265625 C 167.828125 -81.484375 165.015625 -89.785156 159.390625 -96.171875 C 153.773438 -102.554688 146.753906 -107.410156 138.328125 -110.734375 C 129.898438 -114.054688 118.53125 -117.632812 104.21875 -121.46875 C 86.59375 -126.0625 72.476562 -130.65625 61.875 -135.25 C 51.28125 -139.851562 42.210938 -147.070312 34.671875 -156.90625 C 27.140625 -166.738281 23.375 -179.957031 23.375 -196.5625 C 23.375 -211.125 27.078125 -224.023438 34.484375 -235.265625 C 41.890625 -246.503906 52.296875 -255.1875 65.703125 -261.3125 C 79.117188 -267.445312 94.515625 -270.515625 111.890625 -270.515625 C 136.921875 -270.515625 157.414062 -264.253906 173.375 -251.734375 C 189.34375 -239.222656 198.351562 -222.625 200.40625 -201.9375 L 162.078125 -201.9375 C 160.804688 -212.15625 155.441406 -221.15625 145.984375 -228.9375 C 136.535156 -236.726562 124.019531 -240.625 108.4375 -240.625 C 93.875 -240.625 81.992188 -236.859375 72.796875 -229.328125 C 63.609375 -221.796875 59.015625 -211.257812 59.015625 -197.71875 C 59.015625 -188.007812 61.757812 -180.085938 67.25 -173.953125 C 72.738281 -167.828125 79.503906 -163.164062 87.546875 -159.96875 C 95.597656 -156.78125 106.90625 -153.140625 121.46875 -149.046875 C 139.09375 -144.203125 153.269531 -139.414062 164 -134.6875 C 174.726562 -129.957031 183.921875 -122.675781 191.578125 -112.84375 C 199.242188 -103.007812 203.078125 -89.660156 203.078125 -72.796875 C 203.078125 -59.773438 199.628906 -47.515625 192.734375 -36.015625 C 185.835938 -24.523438 175.617188 -15.203125 162.078125 -8.046875 C 148.546875 -0.890625 132.582031 2.6875 114.1875 2.6875 Z M 114.1875 2.6875 "/></g></g></g></g></g></svg>